<svg class="main-svg" xmlns="http://www.w3.org/2000/svg" xmlns:xlink="http://www.w3.org/1999/xlink" width="3200" height="2400" style="" viewBox="0 0 800 600"><rect x="0" y="0" width="800" height="600" style="fill: rgb(255, 255, 255); fill-opacity: 1;"/><defs id="defs-fe9be0"><g class="clips"><clipPath id="clipfe9be0xyplot" class="plotclip"><rect width="600" height="420"/></clipPath><clipPath class="axesclip" id="clipfe9be0x"><rect x="80" y="0" width="600" height="600"/></clipPath><clipPath class="axesclip" id="clipfe9be0y"><rect x="0" y="100" width="800" height="420"/></clipPath><clipPath class="axesclip" id="clipfe9be0xy"><rect x="80" y="100" width="600" height="420"/></clipPath></g><g class="gradients"/><g class="patterns"/></defs><g class="bglayer"><rect class="bg" x="80" y="100" width="600" height="420" style="fill: rgb(251, 248, 255); fill-opacity: 1; stroke-width: 0;"/></g><g class="layer-below"><g class="imagelayer"/><g class="shapelayer"/></g><g class="cartesianlayer"><g class="subplot xy"><g class="layer-subplot"><g class="shapelayer"/><g class="imagelayer"/></g><g class="minor-gridlayer"><g class="x"/><g class="y"/></g><g class="gridlayer"><g class="x"><path class="xgrid crisp" transform="translate(186.94,0)" d="M0,100v420" style="stroke: rgb(255, 255, 255); stroke-opacity: 1; stroke-width: 1px;"/><path class="xgrid crisp" transform="translate(417.21,0)" d="M0,100v420" style="stroke: rgb(255, 255, 255); stroke-opacity: 1; stroke-width: 1px;"/><path class="xgrid crisp" transform="translate(532.3399999999999,0)" d="M0,100v420" style="stroke: rgb(255, 255, 255); stroke-opacity: 1; stroke-width: 1px;"/><path class="xgrid crisp" transform="translate(647.48,0)" d="M0,100v420" style="stroke: rgb(255, 255, 255); stroke-opacity: 1; stroke-width: 1px;"/></g><g class="y"><path class="ygrid crisp" transform="translate(0,477.46)" d="M80,0h600" style="stroke: rgb(255, 255, 255); stroke-opacity: 1; stroke-width: 1px;"/><path class="ygrid crisp" transform="translate(0,422.22)" d="M80,0h600" style="stroke: rgb(255, 255, 255); stroke-opacity: 1; stroke-width: 1px;"/><path class="ygrid crisp" transform="translate(0,366.98)" d="M80,0h600" style="stroke: rgb(255, 255, 255); stroke-opacity: 1; stroke-width: 1px;"/><path class="ygrid crisp" transform="translate(0,256.5)" d="M80,0h600" style="stroke: rgb(255, 255, 255); stroke-opacity: 1; stroke-width: 1px;"/><path class="ygrid crisp" transform="translate(0,201.25)" d="M80,0h600" style="stroke: rgb(255, 255, 255); stroke-opacity: 1; stroke-width: 1px;"/><path class="ygrid crisp" transform="translate(0,146.01)" d="M80,0h600" style="stroke: rgb(255, 255, 255); stroke-opacity: 1; stroke-width: 1px;"/></g></g><g class="zerolinelayer"><path class="xzl zl crisp" transform="translate(302.07,0)" d="M0,100v420" style="stroke: rgb(255, 255, 255); stroke-opacity: 1; stroke-width: 2px;"/><path class="yzl zl crisp" transform="translate(0,311.74)" d="M80,0h600" style="stroke: rgb(255, 255, 255); stroke-opacity: 1; stroke-width: 2px;"/></g><g class="layer-between"><g class="shapelayer"/><g class="imagelayer"/></g><path class="xlines-below"/><path class="ylines-below"/><g class="overlines-below"/><g class="xaxislayer-below"/><g class="yaxislayer-below"/><g class="overaxes-below"/><g class="overplot"><g class="xy" transform="translate(80,100)" clip-path="url(#clipfe9be0xyplot)"><g class="scatterlayer mlayer"><g class="trace scatter tracedd5d06" style="stroke-miterlimit: 2; opacity: 1;"><g class="fills"/><g class="errorbars"/><g class="lines"/><g class="points"><path class="point plotly-customdata" transform="translate(56.52,268.27)" d="M3,0A3,3 0 1,1 0,-3A3,3 0 0,1 3,0Z" style="opacity: 0.7; stroke-width: 0px; fill: rgb(13, 211, 95); fill-opacity: 1;"/><path class="point plotly-customdata" transform="translate(447.28,151.41)" d="M3,0A3,3 0 1,1 0,-3A3,3 0 0,1 3,0Z" style="opacity: 0.7; stroke-width: 0px; fill: rgb(13, 211, 95); fill-opacity: 1;"/><path class="point plotly-customdata" transform="translate(283.35,279.45)" d="M3,0A3,3 0 1,1 0,-3A3,3 0 0,1 3,0Z" style="opacity: 0.7; stroke-width: 0px; fill: rgb(13, 211, 95); fill-opacity: 1;"/><path class="point plotly-customdata" transform="translate(111.13,360.1)" d="M3,0A3,3 0 1,1 0,-3A3,3 0 0,1 3,0Z" style="opacity: 0.7; stroke-width: 0px; fill: rgb(13, 211, 95); fill-opacity: 1;"/><path class="point plotly-customdata" transform="translate(247.67,219.71)" d="M3,0A3,3 0 1,1 0,-3A3,3 0 0,1 3,0Z" style="opacity: 0.7; stroke-width: 0px; fill: rgb(13, 211, 95); fill-opacity: 1;"/><path class="point plotly-customdata" transform="translate(381.06,289.42)" d="M3,0A3,3 0 1,1 0,-3A3,3 0 0,1 3,0Z" style="opacity: 0.7; stroke-width: 0px; fill: rgb(13, 211, 95); fill-opacity: 1;"/><path class="point plotly-customdata" transform="translate(270.31,247.12)" d="M3,0A3,3 0 1,1 0,-3A3,3 0 0,1 3,0Z" style="opacity: 0.7; stroke-width: 0px; fill: rgb(13, 211, 95); fill-opacity: 1;"/><path class="point plotly-customdata" transform="translate(134.62,247.79)" d="M3,0A3,3 0 1,1 0,-3A3,3 0 0,1 3,0Z" style="opacity: 0.7; stroke-width: 0px; fill: rgb(13, 211, 95); fill-opacity: 1;"/><path class="point plotly-customdata" transform="translate(232.24,358.59)" d="M3,0A3,3 0 1,1 0,-3A3,3 0 0,1 3,0Z" style="opacity: 0.7; stroke-width: 0px; fill: rgb(13, 211, 95); fill-opacity: 1;"/><path class="point plotly-customdata" transform="translate(325.11,288.53)" d="M3,0A3,3 0 1,1 0,-3A3,3 0 0,1 3,0Z" style="opacity: 0.7; stroke-width: 0px; fill: rgb(13, 211, 95); fill-opacity: 1;"/><path class="point plotly-customdata" transform="translate(348.91,276.83)" d="M3,0A3,3 0 1,1 0,-3A3,3 0 0,1 3,0Z" style="opacity: 0.7; stroke-width: 0px; fill: rgb(13, 211, 95); fill-opacity: 1;"/><path class="point plotly-customdata" transform="translate(173.91,244.76)" d="M3,0A3,3 0 1,1 0,-3A3,3 0 0,1 3,0Z" style="opacity: 0.7; stroke-width: 0px; fill: rgb(13, 211, 95); fill-opacity: 1;"/><path class="point plotly-customdata" transform="translate(49.68,207.62)" d="M3,0A3,3 0 1,1 0,-3A3,3 0 0,1 3,0Z" style="opacity: 0.7; stroke-width: 0px; fill: rgb(13, 211, 95); fill-opacity: 1;"/><path class="point plotly-customdata" transform="translate(298.86,293.92)" d="M3,0A3,3 0 1,1 0,-3A3,3 0 0,1 3,0Z" style="opacity: 0.7; stroke-width: 0px; fill: rgb(13, 211, 95); fill-opacity: 1;"/><path class="point plotly-customdata" transform="translate(468.97,218.85)" d="M3,0A3,3 0 1,1 0,-3A3,3 0 0,1 3,0Z" style="opacity: 0.7; stroke-width: 0px; fill: rgb(13, 211, 95); fill-opacity: 1;"/><path class="point plotly-customdata" transform="translate(176.28,253.41)" d="M3,0A3,3 0 1,1 0,-3A3,3 0 0,1 3,0Z" style="opacity: 0.7; stroke-width: 0px; fill: rgb(13, 211, 95); fill-opacity: 1;"/><path class="point plotly-customdata" transform="translate(85.98,259.01)" d="M3,0A3,3 0 1,1 0,-3A3,3 0 0,1 3,0Z" style="opacity: 0.7; stroke-width: 0px; fill: rgb(13, 211, 95); fill-opacity: 1;"/><path class="point plotly-customdata" transform="translate(58.85,316.47)" d="M3,0A3,3 0 1,1 0,-3A3,3 0 0,1 3,0Z" style="opacity: 0.7; stroke-width: 0px; fill: rgb(13, 211, 95); fill-opacity: 1;"/><path class="point plotly-customdata" transform="translate(401.8,207.86)" d="M3,0A3,3 0 1,1 0,-3A3,3 0 0,1 3,0Z" style="opacity: 0.7; stroke-width: 0px; fill: rgb(13, 211, 95); fill-opacity: 1;"/><path class="point plotly-customdata" transform="translate(73.07,338.62)" d="M3,0A3,3 0 1,1 0,-3A3,3 0 0,1 3,0Z" style="opacity: 0.7; stroke-width: 0px; fill: rgb(13, 211, 95); fill-opacity: 1;"/><path class="point plotly-customdata" transform="translate(287.96,216.3)" d="M3,0A3,3 0 1,1 0,-3A3,3 0 0,1 3,0Z" style="opacity: 0.7; stroke-width: 0px; fill: rgb(13, 211, 95); fill-opacity: 1;"/><path class="point plotly-customdata" transform="translate(140.94,222.03)" d="M3,0A3,3 0 1,1 0,-3A3,3 0 0,1 3,0Z" style="opacity: 0.7; stroke-width: 0px; fill: rgb(13, 211, 95); fill-opacity: 1;"/><path class="point plotly-customdata" transform="translate(304.79,292.1)" d="M3,0A3,3 0 1,1 0,-3A3,3 0 0,1 3,0Z" style="opacity: 0.7; stroke-width: 0px; fill: rgb(13, 211, 95); fill-opacity: 1;"/><path class="point plotly-customdata" transform="translate(98.83,301.18)" d="M3,0A3,3 0 1,1 0,-3A3,3 0 0,1 3,0Z" style="opacity: 0.7; stroke-width: 0px; fill: rgb(13, 211, 95); fill-opacity: 1;"/><path class="point plotly-customdata" transform="translate(283.6,282.8)" d="M3,0A3,3 0 1,1 0,-3A3,3 0 0,1 3,0Z" style="opacity: 0.7; stroke-width: 0px; fill: rgb(13, 211, 95); fill-opacity: 1;"/><path class="point plotly-customdata" transform="translate(320.55,210.47)" d="M3,0A3,3 0 1,1 0,-3A3,3 0 0,1 3,0Z" style="opacity: 0.7; stroke-width: 0px; fill: rgb(13, 211, 95); fill-opacity: 1;"/><path class="point plotly-customdata" transform="translate(36.04,275.89)" d="M3,0A3,3 0 1,1 0,-3A3,3 0 0,1 3,0Z" style="opacity: 0.7; stroke-width: 0px; fill: rgb(13, 211, 95); fill-opacity: 1;"/><path class="point plotly-customdata" transform="translate(204.03,344.85)" d="M3,0A3,3 0 1,1 0,-3A3,3 0 0,1 3,0Z" style="opacity: 0.7; stroke-width: 0px; fill: rgb(13, 211, 95); fill-opacity: 1;"/><path class="point plotly-customdata" transform="translate(204.84,225.69)" d="M3,0A3,3 0 1,1 0,-3A3,3 0 0,1 3,0Z" style="opacity: 0.7; stroke-width: 0px; fill: rgb(13, 211, 95); fill-opacity: 1;"/><path class="point plotly-customdata" transform="translate(282.16,297.45)" d="M3,0A3,3 0 1,1 0,-3A3,3 0 0,1 3,0Z" style="opacity: 0.7; stroke-width: 0px; fill: rgb(13, 211, 95); fill-opacity: 1;"/><path class="point plotly-customdata" transform="translate(388.55,295.52)" d="M3,0A3,3 0 1,1 0,-3A3,3 0 0,1 3,0Z" style="opacity: 0.7; stroke-width: 0px; fill: rgb(13, 211, 95); fill-opacity: 1;"/><path class="point plotly-customdata" transform="translate(194.43,269.91)" d="M3,0A3,3 0 1,1 0,-3A3,3 0 0,1 3,0Z" style="opacity: 0.7; stroke-width: 0px; fill: rgb(13, 211, 95); fill-opacity: 1;"/><path class="point plotly-customdata" transform="translate(89.74,283.06)" d="M3,0A3,3 0 1,1 0,-3A3,3 0 0,1 3,0Z" style="opacity: 0.7; stroke-width: 0px; fill: rgb(13, 211, 95); fill-opacity: 1;"/><path class="point plotly-customdata" transform="translate(423.99,230.13)" d="M3,0A3,3 0 1,1 0,-3A3,3 0 0,1 3,0Z" style="opacity: 0.7; stroke-width: 0px; fill: rgb(13, 211, 95); fill-opacity: 1;"/><path class="point plotly-customdata" transform="translate(115.25,155.7)" d="M3,0A3,3 0 1,1 0,-3A3,3 0 0,1 3,0Z" style="opacity: 0.7; stroke-width: 0px; fill: rgb(13, 211, 95); fill-opacity: 1;"/><path class="point plotly-customdata" transform="translate(210.58,312.92)" d="M3,0A3,3 0 1,1 0,-3A3,3 0 0,1 3,0Z" style="opacity: 0.7; stroke-width: 0px; fill: rgb(13, 211, 95); fill-opacity: 1;"/><path class="point plotly-customdata" transform="translate(336.03,253.32)" d="M3,0A3,3 0 1,1 0,-3A3,3 0 0,1 3,0Z" style="opacity: 0.7; stroke-width: 0px; fill: rgb(13, 211, 95); fill-opacity: 1;"/><path class="point plotly-customdata" transform="translate(88.26,205.26)" d="M3,0A3,3 0 1,1 0,-3A3,3 0 0,1 3,0Z" style="opacity: 0.7; stroke-width: 0px; fill: rgb(13, 211, 95); fill-opacity: 1;"/><path class="point plotly-customdata" transform="translate(267.77,249.28)" d="M3,0A3,3 0 1,1 0,-3A3,3 0 0,1 3,0Z" style="opacity: 0.7; stroke-width: 0px; fill: rgb(13, 211, 95); fill-opacity: 1;"/><path class="point plotly-customdata" transform="translate(39.87,287.54)" d="M3,0A3,3 0 1,1 0,-3A3,3 0 0,1 3,0Z" style="opacity: 0.7; stroke-width: 0px; fill: rgb(13, 211, 95); fill-opacity: 1;"/><path class="point plotly-customdata" transform="translate(340.64,243.64)" d="M3,0A3,3 0 1,1 0,-3A3,3 0 0,1 3,0Z" style="opacity: 0.7; stroke-width: 0px; fill: rgb(13, 211, 95); fill-opacity: 1;"/><path class="point plotly-customdata" transform="translate(155.66,269.39)" d="M3,0A3,3 0 1,1 0,-3A3,3 0 0,1 3,0Z" style="opacity: 0.7; stroke-width: 0px; fill: rgb(13, 211, 95); fill-opacity: 1;"/><path class="point plotly-customdata" transform="translate(427.93,196.07)" d="M3,0A3,3 0 1,1 0,-3A3,3 0 0,1 3,0Z" style="opacity: 0.7; stroke-width: 0px; fill: rgb(13, 211, 95); fill-opacity: 1;"/><path class="point plotly-customdata" transform="translate(265.33,287.3)" d="M3,0A3,3 0 1,1 0,-3A3,3 0 0,1 3,0Z" style="opacity: 0.7; stroke-width: 0px; fill: rgb(13, 211, 95); fill-opacity: 1;"/><path class="point plotly-customdata" transform="translate(361,322.28)" d="M3,0A3,3 0 1,1 0,-3A3,3 0 0,1 3,0Z" style="opacity: 0.7; stroke-width: 0px; fill: rgb(13, 211, 95); fill-opacity: 1;"/><path class="point plotly-customdata" transform="translate(97.82,248.73)" d="M3,0A3,3 0 1,1 0,-3A3,3 0 0,1 3,0Z" style="opacity: 0.7; stroke-width: 0px; fill: rgb(13, 211, 95); fill-opacity: 1;"/><path class="point plotly-customdata" transform="translate(283.38,254.87)" d="M3,0A3,3 0 1,1 0,-3A3,3 0 0,1 3,0Z" style="opacity: 0.7; stroke-width: 0px; fill: rgb(13, 211, 95); fill-opacity: 1;"/><path class="point plotly-customdata" transform="translate(299.4,284.4)" d="M3,0A3,3 0 1,1 0,-3A3,3 0 0,1 3,0Z" style="opacity: 0.7; stroke-width: 0px; fill: rgb(13, 211, 95); fill-opacity: 1;"/><path class="point plotly-customdata" transform="translate(283.03,218.85)" d="M3,0A3,3 0 1,1 0,-3A3,3 0 0,1 3,0Z" style="opacity: 0.7; stroke-width: 0px; fill: rgb(13, 211, 95); fill-opacity: 1;"/><path class="point plotly-customdata" transform="translate(259.04,167.32)" d="M3,0A3,3 0 1,1 0,-3A3,3 0 0,1 3,0Z" style="opacity: 0.7; stroke-width: 0px; fill: rgb(13, 211, 95); fill-opacity: 1;"/><path class="point plotly-customdata" transform="translate(566.25,165.74)" d="M3,0A3,3 0 1,1 0,-3A3,3 0 0,1 3,0Z" style="opacity: 0.7; stroke-width: 0px; fill: rgb(13, 211, 95); fill-opacity: 1;"/><path class="point plotly-customdata" transform="translate(470.27,149.9)" d="M3,0A3,3 0 1,1 0,-3A3,3 0 0,1 3,0Z" style="opacity: 0.7; stroke-width: 0px; fill: rgb(13, 211, 95); fill-opacity: 1;"/><path class="point plotly-customdata" transform="translate(416.56,195.67)" d="M3,0A3,3 0 1,1 0,-3A3,3 0 0,1 3,0Z" style="opacity: 0.7; stroke-width: 0px; fill: rgb(13, 211, 95); fill-opacity: 1;"/><path class="point plotly-customdata" transform="translate(274.09,248.33)" d="M3,0A3,3 0 1,1 0,-3A3,3 0 0,1 3,0Z" style="opacity: 0.7; stroke-width: 0px; fill: rgb(13, 211, 95); fill-opacity: 1;"/><path class="point plotly-customdata" transform="translate(215.85,205.98)" d="M3,0A3,3 0 1,1 0,-3A3,3 0 0,1 3,0Z" style="opacity: 0.7; stroke-width: 0px; fill: rgb(13, 211, 95); fill-opacity: 1;"/><path class="point plotly-customdata" transform="translate(68.32,303.32)" d="M3,0A3,3 0 1,1 0,-3A3,3 0 0,1 3,0Z" style="opacity: 0.7; stroke-width: 0px; fill: rgb(13, 211, 95); fill-opacity: 1;"/><path class="point plotly-customdata" transform="translate(380.2,395.25)" d="M3,0A3,3 0 1,1 0,-3A3,3 0 0,1 3,0Z" style="opacity: 0.7; stroke-width: 0px; fill: rgb(13, 211, 95); fill-opacity: 1;"/><path class="point plotly-customdata" transform="translate(102.24,313.47)" d="M3,0A3,3 0 1,1 0,-3A3,3 0 0,1 3,0Z" style="opacity: 0.7; stroke-width: 0px; fill: rgb(13, 211, 95); fill-opacity: 1;"/><path class="point plotly-customdata" transform="translate(200.51,270.13)" d="M3,0A3,3 0 1,1 0,-3A3,3 0 0,1 3,0Z" style="opacity: 0.7; stroke-width: 0px; fill: rgb(13, 211, 95); fill-opacity: 1;"/><path class="point plotly-customdata" transform="translate(33.75,309.97)" d="M3,0A3,3 0 1,1 0,-3A3,3 0 0,1 3,0Z" style="opacity: 0.7; stroke-width: 0px; fill: rgb(13, 211, 95); fill-opacity: 1;"/><path class="point plotly-customdata" transform="translate(146.48,303.01)" d="M3,0A3,3 0 1,1 0,-3A3,3 0 0,1 3,0Z" style="opacity: 0.7; stroke-width: 0px; fill: rgb(13, 211, 95); fill-opacity: 1;"/><path class="point plotly-customdata" transform="translate(59.2,311.44)" d="M3,0A3,3 0 1,1 0,-3A3,3 0 0,1 3,0Z" style="opacity: 0.7; stroke-width: 0px; fill: rgb(13, 211, 95); fill-opacity: 1;"/><path class="point plotly-customdata" transform="translate(405.35,182)" d="M3,0A3,3 0 1,1 0,-3A3,3 0 0,1 3,0Z" style="opacity: 0.7; stroke-width: 0px; fill: rgb(13, 211, 95); fill-opacity: 1;"/><path class="point plotly-customdata" transform="translate(444.8,212.41)" d="M3,0A3,3 0 1,1 0,-3A3,3 0 0,1 3,0Z" style="opacity: 0.7; stroke-width: 0px; fill: rgb(13, 211, 95); fill-opacity: 1;"/><path class="point plotly-customdata" transform="translate(103.15,289.04)" d="M3,0A3,3 0 1,1 0,-3A3,3 0 0,1 3,0Z" style="opacity: 0.7; stroke-width: 0px; fill: rgb(13, 211, 95); fill-opacity: 1;"/><path class="point plotly-customdata" transform="translate(306.13,188.01)" d="M3,0A3,3 0 1,1 0,-3A3,3 0 0,1 3,0Z" style="opacity: 0.7; stroke-width: 0px; fill: rgb(13, 211, 95); fill-opacity: 1;"/><path class="point plotly-customdata" transform="translate(220.49,254.82)" d="M3,0A3,3 0 1,1 0,-3A3,3 0 0,1 3,0Z" style="opacity: 0.7; stroke-width: 0px; fill: rgb(13, 211, 95); fill-opacity: 1;"/><path class="point plotly-customdata" transform="translate(127.15,277.02)" d="M3,0A3,3 0 1,1 0,-3A3,3 0 0,1 3,0Z" style="opacity: 0.7; stroke-width: 0px; fill: rgb(13, 211, 95); fill-opacity: 1;"/><path class="point plotly-customdata" transform="translate(218.08,303.28)" d="M3,0A3,3 0 1,1 0,-3A3,3 0 0,1 3,0Z" style="opacity: 0.7; stroke-width: 0px; fill: rgb(13, 211, 95); fill-opacity: 1;"/><path class="point plotly-customdata" transform="translate(254.43,213.15)" d="M3,0A3,3 0 1,1 0,-3A3,3 0 0,1 3,0Z" style="opacity: 0.7; stroke-width: 0px; fill: rgb(13, 211, 95); fill-opacity: 1;"/><path class="point plotly-customdata" transform="translate(441.06,158.17)" d="M3,0A3,3 0 1,1 0,-3A3,3 0 0,1 3,0Z" style="opacity: 0.7; stroke-width: 0px; fill: rgb(13, 211, 95); fill-opacity: 1;"/><path class="point plotly-customdata" transform="translate(35.88,259.37)" d="M3,0A3,3 0 1,1 0,-3A3,3 0 0,1 3,0Z" style="opacity: 0.7; stroke-width: 0px; fill: rgb(13, 211, 95); fill-opacity: 1;"/><path class="point plotly-customdata" transform="translate(196.05,236.77)" d="M3,0A3,3 0 1,1 0,-3A3,3 0 0,1 3,0Z" style="opacity: 0.7; stroke-width: 0px; fill: rgb(13, 211, 95); fill-opacity: 1;"/><path class="point plotly-customdata" transform="translate(184.54,326.77)" d="M3,0A3,3 0 1,1 0,-3A3,3 0 0,1 3,0Z" style="opacity: 0.7; stroke-width: 0px; fill: rgb(13, 211, 95); fill-opacity: 1;"/><path class="point plotly-customdata" transform="translate(262.46,225.25)" d="M3,0A3,3 0 1,1 0,-3A3,3 0 0,1 3,0Z" style="opacity: 0.7; stroke-width: 0px; fill: rgb(13, 211, 95); fill-opacity: 1;"/><path class="point plotly-customdata" transform="translate(104.56,231.95)" d="M3,0A3,3 0 1,1 0,-3A3,3 0 0,1 3,0Z" style="opacity: 0.7; stroke-width: 0px; fill: rgb(13, 211, 95); fill-opacity: 1;"/><path class="point plotly-customdata" transform="translate(303.05,346.51)" d="M3,0A3,3 0 1,1 0,-3A3,3 0 0,1 3,0Z" style="opacity: 0.7; stroke-width: 0px; fill: rgb(13, 211, 95); fill-opacity: 1;"/><path class="point plotly-customdata" transform="translate(342.45,349.1)" d="M3,0A3,3 0 1,1 0,-3A3,3 0 0,1 3,0Z" style="opacity: 0.7; stroke-width: 0px; fill: rgb(13, 211, 95); fill-opacity: 1;"/><path class="point plotly-customdata" transform="translate(228.03,163.37)" d="M3,0A3,3 0 1,1 0,-3A3,3 0 0,1 3,0Z" style="opacity: 0.7; stroke-width: 0px; fill: rgb(13, 211, 95); fill-opacity: 1;"/><path class="point plotly-customdata" transform="translate(186.36,213.59)" d="M3,0A3,3 0 1,1 0,-3A3,3 0 0,1 3,0Z" style="opacity: 0.7; stroke-width: 0px; fill: rgb(13, 211, 95); fill-opacity: 1;"/><path class="point plotly-customdata" transform="translate(105.35,321.73)" d="M3,0A3,3 0 1,1 0,-3A3,3 0 0,1 3,0Z" style="opacity: 0.7; stroke-width: 0px; fill: rgb(13, 211, 95); fill-opacity: 1;"/><path class="point plotly-customdata" transform="translate(162.08,263.04)" d="M3,0A3,3 0 1,1 0,-3A3,3 0 0,1 3,0Z" style="opacity: 0.7; stroke-width: 0px; fill: rgb(13, 211, 95); fill-opacity: 1;"/><path class="point plotly-customdata" transform="translate(192.93,243.97)" d="M3,0A3,3 0 1,1 0,-3A3,3 0 0,1 3,0Z" style="opacity: 0.7; stroke-width: 0px; fill: rgb(13, 211, 95); fill-opacity: 1;"/><path class="point plotly-customdata" transform="translate(426.73,260.08)" d="M3,0A3,3 0 1,1 0,-3A3,3 0 0,1 3,0Z" style="opacity: 0.7; stroke-width: 0px; fill: rgb(13, 211, 95); fill-opacity: 1;"/><path class="point plotly-customdata" transform="translate(101.05,302.3)" d="M3,0A3,3 0 1,1 0,-3A3,3 0 0,1 3,0Z" style="opacity: 0.7; stroke-width: 0px; fill: rgb(13, 211, 95); fill-opacity: 1;"/><path class="point plotly-customdata" transform="translate(141.78,319.8)" d="M3,0A3,3 0 1,1 0,-3A3,3 0 0,1 3,0Z" style="opacity: 0.7; stroke-width: 0px; fill: rgb(13, 211, 95); fill-opacity: 1;"/><path class="point plotly-customdata" transform="translate(247.92,198.17)" d="M3,0A3,3 0 1,1 0,-3A3,3 0 0,1 3,0Z" style="opacity: 0.7; stroke-width: 0px; fill: rgb(13, 211, 95); fill-opacity: 1;"/><path class="point plotly-customdata" transform="translate(272.02,268.26)" d="M3,0A3,3 0 1,1 0,-3A3,3 0 0,1 3,0Z" style="opacity: 0.7; stroke-width: 0px; fill: rgb(13, 211, 95); fill-opacity: 1;"/><path class="point plotly-customdata" transform="translate(296.29,233.91)" d="M3,0A3,3 0 1,1 0,-3A3,3 0 0,1 3,0Z" style="opacity: 0.7; stroke-width: 0px; fill: rgb(13, 211, 95); fill-opacity: 1;"/><path class="point plotly-customdata" transform="translate(359.06,307.23)" d="M3,0A3,3 0 1,1 0,-3A3,3 0 0,1 3,0Z" style="opacity: 0.7; stroke-width: 0px; fill: rgb(13, 211, 95); fill-opacity: 1;"/><path class="point plotly-customdata" transform="translate(386.6,153.8)" d="M3,0A3,3 0 1,1 0,-3A3,3 0 0,1 3,0Z" style="opacity: 0.7; stroke-width: 0px; fill: rgb(13, 211, 95); fill-opacity: 1;"/><path class="point plotly-customdata" transform="translate(351.24,209.96)" d="M3,0A3,3 0 1,1 0,-3A3,3 0 0,1 3,0Z" style="opacity: 0.7; stroke-width: 0px; fill: rgb(13, 211, 95); fill-opacity: 1;"/><path class="point plotly-customdata" transform="translate(114.22,281.91)" d="M3,0A3,3 0 1,1 0,-3A3,3 0 0,1 3,0Z" style="opacity: 0.7; stroke-width: 0px; fill: rgb(13, 211, 95); fill-opacity: 1;"/><path class="point plotly-customdata" transform="translate(200.69,254.15)" d="M3,0A3,3 0 1,1 0,-3A3,3 0 0,1 3,0Z" style="opacity: 0.7; stroke-width: 0px; fill: rgb(13, 211, 95); fill-opacity: 1;"/><path class="point plotly-customdata" transform="translate(66.77,304.28)" d="M3,0A3,3 0 1,1 0,-3A3,3 0 0,1 3,0Z" style="opacity: 0.7; stroke-width: 0px; fill: rgb(13, 211, 95); fill-opacity: 1;"/><path class="point plotly-customdata" transform="translate(196.22,238.24)" d="M3,0A3,3 0 1,1 0,-3A3,3 0 0,1 3,0Z" style="opacity: 0.7; stroke-width: 0px; fill: rgb(13, 211, 95); fill-opacity: 1;"/><path class="point plotly-customdata" transform="translate(190.5,259.19)" d="M3,0A3,3 0 1,1 0,-3A3,3 0 0,1 3,0Z" style="opacity: 0.7; stroke-width: 0px; fill: rgb(13, 211, 95); fill-opacity: 1;"/><path class="point plotly-customdata" transform="translate(98.13,209.59)" d="M3,0A3,3 0 1,1 0,-3A3,3 0 0,1 3,0Z" style="opacity: 0.7; stroke-width: 0px; fill: rgb(13, 211, 95); fill-opacity: 1;"/><path class="point plotly-customdata" transform="translate(51.81,343.57)" d="M3,0A3,3 0 1,1 0,-3A3,3 0 0,1 3,0Z" style="opacity: 0.7; stroke-width: 0px; fill: rgb(13, 211, 95); fill-opacity: 1;"/><path class="point plotly-customdata" transform="translate(263.57,257.52)" d="M3,0A3,3 0 1,1 0,-3A3,3 0 0,1 3,0Z" style="opacity: 0.7; stroke-width: 0px; fill: rgb(13, 211, 95); fill-opacity: 1;"/></g><g class="text"/></g><g class="trace scatter traceef2b86" style="stroke-miterlimit: 2; opacity: 1;"><g class="fills"/><g class="errorbars"/><g class="lines"/><g class="points"><path class="point plotly-customdata" transform="translate(301.41,139.16)" d="M3,0A3,3 0 1,1 0,-3A3,3 0 0,1 3,0Z" style="opacity: 0.7; stroke-width: 0px; fill: rgb(67, 50, 124); fill-opacity: 1;"/><path class="point plotly-customdata" transform="translate(158.76,51.18)" d="M3,0A3,3 0 1,1 0,-3A3,3 0 0,1 3,0Z" style="opacity: 0.7; stroke-width: 0px; fill: rgb(67, 50, 124); fill-opacity: 1;"/><path class="point plotly-customdata" transform="translate(254.17,182.52)" d="M3,0A3,3 0 1,1 0,-3A3,3 0 0,1 3,0Z" style="opacity: 0.7; stroke-width: 0px; fill: rgb(67, 50, 124); fill-opacity: 1;"/><path class="point plotly-customdata" transform="translate(271.01,171.56)" d="M3,0A3,3 0 1,1 0,-3A3,3 0 0,1 3,0Z" style="opacity: 0.7; stroke-width: 0px; fill: rgb(67, 50, 124); fill-opacity: 1;"/><path class="point plotly-customdata" transform="translate(300.68,133.06)" d="M3,0A3,3 0 1,1 0,-3A3,3 0 0,1 3,0Z" style="opacity: 0.7; stroke-width: 0px; fill: rgb(67, 50, 124); fill-opacity: 1;"/><path class="point plotly-customdata" transform="translate(319.08,164.87)" d="M3,0A3,3 0 1,1 0,-3A3,3 0 0,1 3,0Z" style="opacity: 0.7; stroke-width: 0px; fill: rgb(67, 50, 124); fill-opacity: 1;"/><path class="point plotly-customdata" transform="translate(201.21,140.09)" d="M3,0A3,3 0 1,1 0,-3A3,3 0 0,1 3,0Z" style="opacity: 0.7; stroke-width: 0px; fill: rgb(67, 50, 124); fill-opacity: 1;"/><path class="point plotly-customdata" transform="translate(152.1,163.3)" d="M3,0A3,3 0 1,1 0,-3A3,3 0 0,1 3,0Z" style="opacity: 0.7; stroke-width: 0px; fill: rgb(67, 50, 124); fill-opacity: 1;"/><path class="point plotly-customdata" transform="translate(145.94,85.31)" d="M3,0A3,3 0 1,1 0,-3A3,3 0 0,1 3,0Z" style="opacity: 0.7; stroke-width: 0px; fill: rgb(67, 50, 124); fill-opacity: 1;"/><path class="point plotly-customdata" transform="translate(148.25,108.99)" d="M3,0A3,3 0 1,1 0,-3A3,3 0 0,1 3,0Z" style="opacity: 0.7; stroke-width: 0px; fill: rgb(67, 50, 124); fill-opacity: 1;"/><path class="point plotly-customdata" transform="translate(131.7,193.66)" d="M3,0A3,3 0 1,1 0,-3A3,3 0 0,1 3,0Z" style="opacity: 0.7; stroke-width: 0px; fill: rgb(67, 50, 124); fill-opacity: 1;"/><path class="point plotly-customdata" transform="translate(230.67,114.17)" d="M3,0A3,3 0 1,1 0,-3A3,3 0 0,1 3,0Z" style="opacity: 0.7; stroke-width: 0px; fill: rgb(67, 50, 124); fill-opacity: 1;"/><path class="point plotly-customdata" transform="translate(154.27,160.41)" d="M3,0A3,3 0 1,1 0,-3A3,3 0 0,1 3,0Z" style="opacity: 0.7; stroke-width: 0px; fill: rgb(67, 50, 124); fill-opacity: 1;"/><path class="point plotly-customdata" transform="translate(253.91,212.57)" d="M3,0A3,3 0 1,1 0,-3A3,3 0 0,1 3,0Z" style="opacity: 0.7; stroke-width: 0px; fill: rgb(67, 50, 124); fill-opacity: 1;"/><path class="point plotly-customdata" transform="translate(295.42,137.92)" d="M3,0A3,3 0 1,1 0,-3A3,3 0 0,1 3,0Z" style="opacity: 0.7; stroke-width: 0px; fill: rgb(67, 50, 124); fill-opacity: 1;"/><path class="point plotly-customdata" transform="translate(275.61,136.21)" d="M3,0A3,3 0 1,1 0,-3A3,3 0 0,1 3,0Z" style="opacity: 0.7; stroke-width: 0px; fill: rgb(67, 50, 124); fill-opacity: 1;"/><path class="point plotly-customdata" transform="translate(276.99,290.05)" d="M3,0A3,3 0 1,1 0,-3A3,3 0 0,1 3,0Z" style="opacity: 0.7; stroke-width: 0px; fill: rgb(67, 50, 124); fill-opacity: 1;"/><path class="point plotly-customdata" transform="translate(235.09,176.03)" d="M3,0A3,3 0 1,1 0,-3A3,3 0 0,1 3,0Z" style="opacity: 0.7; stroke-width: 0px; fill: rgb(67, 50, 124); fill-opacity: 1;"/><path class="point plotly-customdata" transform="translate(155.22,80.51)" d="M3,0A3,3 0 1,1 0,-3A3,3 0 0,1 3,0Z" style="opacity: 0.7; stroke-width: 0px; fill: rgb(67, 50, 124); fill-opacity: 1;"/><path class="point plotly-customdata" transform="translate(139.66,131.11)" d="M3,0A3,3 0 1,1 0,-3A3,3 0 0,1 3,0Z" style="opacity: 0.7; stroke-width: 0px; fill: rgb(67, 50, 124); fill-opacity: 1;"/><path class="point plotly-customdata" transform="translate(134.81,125.86)" d="M3,0A3,3 0 1,1 0,-3A3,3 0 0,1 3,0Z" style="opacity: 0.7; stroke-width: 0px; fill: rgb(67, 50, 124); fill-opacity: 1;"/><path class="point plotly-customdata" transform="translate(256.9,245.03)" d="M3,0A3,3 0 1,1 0,-3A3,3 0 0,1 3,0Z" style="opacity: 0.7; stroke-width: 0px; fill: rgb(67, 50, 124); fill-opacity: 1;"/><path class="point plotly-customdata" transform="translate(174.87,129.96)" d="M3,0A3,3 0 1,1 0,-3A3,3 0 0,1 3,0Z" style="opacity: 0.7; stroke-width: 0px; fill: rgb(67, 50, 124); fill-opacity: 1;"/><path class="point plotly-customdata" transform="translate(105.15,127.3)" d="M3,0A3,3 0 1,1 0,-3A3,3 0 0,1 3,0Z" style="opacity: 0.7; stroke-width: 0px; fill: rgb(67, 50, 124); fill-opacity: 1;"/><path class="point plotly-customdata" transform="translate(128.66,155.62)" d="M3,0A3,3 0 1,1 0,-3A3,3 0 0,1 3,0Z" style="opacity: 0.7; stroke-width: 0px; fill: rgb(67, 50, 124); fill-opacity: 1;"/><path class="point plotly-customdata" transform="translate(232.45,175.65)" d="M3,0A3,3 0 1,1 0,-3A3,3 0 0,1 3,0Z" style="opacity: 0.7; stroke-width: 0px; fill: rgb(67, 50, 124); fill-opacity: 1;"/><path class="point plotly-customdata" transform="translate(290.82,200.53)" d="M3,0A3,3 0 1,1 0,-3A3,3 0 0,1 3,0Z" style="opacity: 0.7; stroke-width: 0px; fill: rgb(67, 50, 124); fill-opacity: 1;"/><path class="point plotly-customdata" transform="translate(189.38,24.75)" d="M3,0A3,3 0 1,1 0,-3A3,3 0 0,1 3,0Z" style="opacity: 0.7; stroke-width: 0px; fill: rgb(67, 50, 124); fill-opacity: 1;"/><path class="point plotly-customdata" transform="translate(182.78,44.22)" d="M3,0A3,3 0 1,1 0,-3A3,3 0 0,1 3,0Z" style="opacity: 0.7; stroke-width: 0px; fill: rgb(67, 50, 124); fill-opacity: 1;"/><path class="point plotly-customdata" transform="translate(145.9,84.29)" d="M3,0A3,3 0 1,1 0,-3A3,3 0 0,1 3,0Z" style="opacity: 0.7; stroke-width: 0px; fill: rgb(67, 50, 124); fill-opacity: 1;"/><path class="point plotly-customdata" transform="translate(364.39,303.45)" d="M3,0A3,3 0 1,1 0,-3A3,3 0 0,1 3,0Z" style="opacity: 0.7; stroke-width: 0px; fill: rgb(67, 50, 124); fill-opacity: 1;"/><path class="point plotly-customdata" transform="translate(349.04,172.88)" d="M3,0A3,3 0 1,1 0,-3A3,3 0 0,1 3,0Z" style="opacity: 0.7; stroke-width: 0px; fill: rgb(67, 50, 124); fill-opacity: 1;"/><path class="point plotly-customdata" transform="translate(335.54,201.44)" d="M3,0A3,3 0 1,1 0,-3A3,3 0 0,1 3,0Z" style="opacity: 0.7; stroke-width: 0px; fill: rgb(67, 50, 124); fill-opacity: 1;"/><path class="point plotly-customdata" transform="translate(326.04,239.37)" d="M3,0A3,3 0 1,1 0,-3A3,3 0 0,1 3,0Z" style="opacity: 0.7; stroke-width: 0px; fill: rgb(67, 50, 124); fill-opacity: 1;"/><path class="point plotly-customdata" transform="translate(261.17,275.17)" d="M3,0A3,3 0 1,1 0,-3A3,3 0 0,1 3,0Z" style="opacity: 0.7; stroke-width: 0px; fill: rgb(67, 50, 124); fill-opacity: 1;"/><path class="point plotly-customdata" transform="translate(206.61,121.87)" d="M3,0A3,3 0 1,1 0,-3A3,3 0 0,1 3,0Z" style="opacity: 0.7; stroke-width: 0px; fill: rgb(67, 50, 124); fill-opacity: 1;"/><path class="point plotly-customdata" transform="translate(118.47,112.73)" d="M3,0A3,3 0 1,1 0,-3A3,3 0 0,1 3,0Z" style="opacity: 0.7; stroke-width: 0px; fill: rgb(67, 50, 124); fill-opacity: 1;"/><path class="point plotly-customdata" transform="translate(272.9,269.89)" d="M3,0A3,3 0 1,1 0,-3A3,3 0 0,1 3,0Z" style="opacity: 0.7; stroke-width: 0px; fill: rgb(67, 50, 124); fill-opacity: 1;"/><path class="point plotly-customdata" transform="translate(147.23,129.1)" d="M3,0A3,3 0 1,1 0,-3A3,3 0 0,1 3,0Z" style="opacity: 0.7; stroke-width: 0px; fill: rgb(67, 50, 124); fill-opacity: 1;"/><path class="point plotly-customdata" transform="translate(202.02,226.34)" d="M3,0A3,3 0 1,1 0,-3A3,3 0 0,1 3,0Z" style="opacity: 0.7; stroke-width: 0px; fill: rgb(67, 50, 124); fill-opacity: 1;"/><path class="point plotly-customdata" transform="translate(96.58,235.27)" d="M3,0A3,3 0 1,1 0,-3A3,3 0 0,1 3,0Z" style="opacity: 0.7; stroke-width: 0px; fill: rgb(67, 50, 124); fill-opacity: 1;"/><path class="point plotly-customdata" transform="translate(223.28,216.42)" d="M3,0A3,3 0 1,1 0,-3A3,3 0 0,1 3,0Z" style="opacity: 0.7; stroke-width: 0px; fill: rgb(67, 50, 124); fill-opacity: 1;"/><path class="point plotly-customdata" transform="translate(237.02,296.3)" d="M3,0A3,3 0 1,1 0,-3A3,3 0 0,1 3,0Z" style="opacity: 0.7; stroke-width: 0px; fill: rgb(67, 50, 124); fill-opacity: 1;"/><path class="point plotly-customdata" transform="translate(149.02,114.36)" d="M3,0A3,3 0 1,1 0,-3A3,3 0 0,1 3,0Z" style="opacity: 0.7; stroke-width: 0px; fill: rgb(67, 50, 124); fill-opacity: 1;"/><path class="point plotly-customdata" transform="translate(70.01,190.98)" d="M3,0A3,3 0 1,1 0,-3A3,3 0 0,1 3,0Z" style="opacity: 0.7; stroke-width: 0px; fill: rgb(67, 50, 124); fill-opacity: 1;"/><path class="point plotly-customdata" transform="translate(268.95,197.91)" d="M3,0A3,3 0 1,1 0,-3A3,3 0 0,1 3,0Z" style="opacity: 0.7; stroke-width: 0px; fill: rgb(67, 50, 124); fill-opacity: 1;"/><path class="point plotly-customdata" transform="translate(192.1,111.68)" d="M3,0A3,3 0 1,1 0,-3A3,3 0 0,1 3,0Z" style="opacity: 0.7; stroke-width: 0px; fill: rgb(67, 50, 124); fill-opacity: 1;"/><path class="point plotly-customdata" transform="translate(51.54,230.69)" d="M3,0A3,3 0 1,1 0,-3A3,3 0 0,1 3,0Z" style="opacity: 0.7; stroke-width: 0px; fill: rgb(67, 50, 124); fill-opacity: 1;"/><path class="point plotly-customdata" transform="translate(194.14,272.8)" d="M3,0A3,3 0 1,1 0,-3A3,3 0 0,1 3,0Z" style="opacity: 0.7; stroke-width: 0px; fill: rgb(67, 50, 124); fill-opacity: 1;"/><path class="point plotly-customdata" transform="translate(259.49,134.47)" d="M3,0A3,3 0 1,1 0,-3A3,3 0 0,1 3,0Z" style="opacity: 0.7; stroke-width: 0px; fill: rgb(67, 50, 124); fill-opacity: 1;"/><path class="point plotly-customdata" transform="translate(230.22,121.34)" d="M3,0A3,3 0 1,1 0,-3A3,3 0 0,1 3,0Z" style="opacity: 0.7; stroke-width: 0px; fill: rgb(67, 50, 124); fill-opacity: 1;"/><path class="point plotly-customdata" transform="translate(323.64,170.77)" d="M3,0A3,3 0 1,1 0,-3A3,3 0 0,1 3,0Z" style="opacity: 0.7; stroke-width: 0px; fill: rgb(67, 50, 124); fill-opacity: 1;"/><path class="point plotly-customdata" transform="translate(212.54,80.08)" d="M3,0A3,3 0 1,1 0,-3A3,3 0 0,1 3,0Z" style="opacity: 0.7; stroke-width: 0px; fill: rgb(67, 50, 124); fill-opacity: 1;"/><path class="point plotly-customdata" transform="translate(151.58,54.72)" d="M3,0A3,3 0 1,1 0,-3A3,3 0 0,1 3,0Z" style="opacity: 0.7; stroke-width: 0px; fill: rgb(67, 50, 124); fill-opacity: 1;"/><path class="point plotly-customdata" transform="translate(201.76,203.82)" d="M3,0A3,3 0 1,1 0,-3A3,3 0 0,1 3,0Z" style="opacity: 0.7; stroke-width: 0px; fill: rgb(67, 50, 124); fill-opacity: 1;"/><path class="point plotly-customdata" transform="translate(425.13,145.29)" d="M3,0A3,3 0 1,1 0,-3A3,3 0 0,1 3,0Z" style="opacity: 0.7; stroke-width: 0px; fill: rgb(67, 50, 124); fill-opacity: 1;"/><path class="point plotly-customdata" transform="translate(147.44,207.75)" d="M3,0A3,3 0 1,1 0,-3A3,3 0 0,1 3,0Z" style="opacity: 0.7; stroke-width: 0px; fill: rgb(67, 50, 124); fill-opacity: 1;"/><path class="point plotly-customdata" transform="translate(248.74,136.32)" d="M3,0A3,3 0 1,1 0,-3A3,3 0 0,1 3,0Z" style="opacity: 0.7; stroke-width: 0px; fill: rgb(67, 50, 124); fill-opacity: 1;"/><path class="point plotly-customdata" transform="translate(325.56,176.06)" d="M3,0A3,3 0 1,1 0,-3A3,3 0 0,1 3,0Z" style="opacity: 0.7; stroke-width: 0px; fill: rgb(67, 50, 124); fill-opacity: 1;"/><path class="point plotly-customdata" transform="translate(113.06,131.35)" d="M3,0A3,3 0 1,1 0,-3A3,3 0 0,1 3,0Z" style="opacity: 0.7; stroke-width: 0px; fill: rgb(67, 50, 124); fill-opacity: 1;"/><path class="point plotly-customdata" transform="translate(103.55,185.83)" d="M3,0A3,3 0 1,1 0,-3A3,3 0 0,1 3,0Z" style="opacity: 0.7; stroke-width: 0px; fill: rgb(67, 50, 124); fill-opacity: 1;"/><path class="point plotly-customdata" transform="translate(260.31,296.75)" d="M3,0A3,3 0 1,1 0,-3A3,3 0 0,1 3,0Z" style="opacity: 0.7; stroke-width: 0px; fill: rgb(67, 50, 124); fill-opacity: 1;"/><path class="point plotly-customdata" transform="translate(204.36,149.24)" d="M3,0A3,3 0 1,1 0,-3A3,3 0 0,1 3,0Z" style="opacity: 0.7; stroke-width: 0px; fill: rgb(67, 50, 124); fill-opacity: 1;"/><path class="point plotly-customdata" transform="translate(311.18,77.63)" d="M3,0A3,3 0 1,1 0,-3A3,3 0 0,1 3,0Z" style="opacity: 0.7; stroke-width: 0px; fill: rgb(67, 50, 124); fill-opacity: 1;"/><path class="point plotly-customdata" transform="translate(205.46,214.11)" d="M3,0A3,3 0 1,1 0,-3A3,3 0 0,1 3,0Z" style="opacity: 0.7; stroke-width: 0px; fill: rgb(67, 50, 124); fill-opacity: 1;"/><path class="point plotly-customdata" transform="translate(320.24,123.97)" d="M3,0A3,3 0 1,1 0,-3A3,3 0 0,1 3,0Z" style="opacity: 0.7; stroke-width: 0px; fill: rgb(67, 50, 124); fill-opacity: 1;"/><path class="point plotly-customdata" transform="translate(261.61,141.65)" d="M3,0A3,3 0 1,1 0,-3A3,3 0 0,1 3,0Z" style="opacity: 0.7; stroke-width: 0px; fill: rgb(67, 50, 124); fill-opacity: 1;"/><path class="point plotly-customdata" transform="translate(151.77,64.9)" d="M3,0A3,3 0 1,1 0,-3A3,3 0 0,1 3,0Z" style="opacity: 0.7; stroke-width: 0px; fill: rgb(67, 50, 124); fill-opacity: 1;"/><path class="point plotly-customdata" transform="translate(192.56,163.01)" d="M3,0A3,3 0 1,1 0,-3A3,3 0 0,1 3,0Z" style="opacity: 0.7; stroke-width: 0px; fill: rgb(67, 50, 124); fill-opacity: 1;"/><path class="point plotly-customdata" transform="translate(272.12,261.47)" d="M3,0A3,3 0 1,1 0,-3A3,3 0 0,1 3,0Z" style="opacity: 0.7; stroke-width: 0px; fill: rgb(67, 50, 124); fill-opacity: 1;"/><path class="point plotly-customdata" transform="translate(134.76,217.7)" d="M3,0A3,3 0 1,1 0,-3A3,3 0 0,1 3,0Z" style="opacity: 0.7; stroke-width: 0px; fill: rgb(67, 50, 124); fill-opacity: 1;"/><path class="point plotly-customdata" transform="translate(334.3,233.89)" d="M3,0A3,3 0 1,1 0,-3A3,3 0 0,1 3,0Z" style="opacity: 0.7; stroke-width: 0px; fill: rgb(67, 50, 124); fill-opacity: 1;"/><path class="point plotly-customdata" transform="translate(105.18,133.04)" d="M3,0A3,3 0 1,1 0,-3A3,3 0 0,1 3,0Z" style="opacity: 0.7; stroke-width: 0px; fill: rgb(67, 50, 124); fill-opacity: 1;"/><path class="point plotly-customdata" transform="translate(279.3,174.96)" d="M3,0A3,3 0 1,1 0,-3A3,3 0 0,1 3,0Z" style="opacity: 0.7; stroke-width: 0px; fill: rgb(67, 50, 124); fill-opacity: 1;"/><path class="point plotly-customdata" transform="translate(95,87.61)" d="M3,0A3,3 0 1,1 0,-3A3,3 0 0,1 3,0Z" style="opacity: 0.7; stroke-width: 0px; fill: rgb(67, 50, 124); fill-opacity: 1;"/><path class="point plotly-customdata" transform="translate(102.93,168.95)" d="M3,0A3,3 0 1,1 0,-3A3,3 0 0,1 3,0Z" style="opacity: 0.7; stroke-width: 0px; fill: rgb(67, 50, 124); fill-opacity: 1;"/><path class="point plotly-customdata" transform="translate(323.29,188.51)" d="M3,0A3,3 0 1,1 0,-3A3,3 0 0,1 3,0Z" style="opacity: 0.7; stroke-width: 0px; fill: rgb(67, 50, 124); fill-opacity: 1;"/><path class="point plotly-customdata" transform="translate(230.66,230.17)" d="M3,0A3,3 0 1,1 0,-3A3,3 0 0,1 3,0Z" style="opacity: 0.7; stroke-width: 0px; fill: rgb(67, 50, 124); fill-opacity: 1;"/><path class="point plotly-customdata" transform="translate(148.25,128.01)" d="M3,0A3,3 0 1,1 0,-3A3,3 0 0,1 3,0Z" style="opacity: 0.7; stroke-width: 0px; fill: rgb(67, 50, 124); fill-opacity: 1;"/><path class="point plotly-customdata" transform="translate(142.63,123.44)" d="M3,0A3,3 0 1,1 0,-3A3,3 0 0,1 3,0Z" style="opacity: 0.7; stroke-width: 0px; fill: rgb(67, 50, 124); fill-opacity: 1;"/><path class="point plotly-customdata" transform="translate(174.98,100.22)" d="M3,0A3,3 0 1,1 0,-3A3,3 0 0,1 3,0Z" style="opacity: 0.7; stroke-width: 0px; fill: rgb(67, 50, 124); fill-opacity: 1;"/><path class="point plotly-customdata" transform="translate(381.6,120.89)" d="M3,0A3,3 0 1,1 0,-3A3,3 0 0,1 3,0Z" style="opacity: 0.7; stroke-width: 0px; fill: rgb(67, 50, 124); fill-opacity: 1;"/><path class="point plotly-customdata" transform="translate(114.91,128.91)" d="M3,0A3,3 0 1,1 0,-3A3,3 0 0,1 3,0Z" style="opacity: 0.7; stroke-width: 0px; fill: rgb(67, 50, 124); fill-opacity: 1;"/><path class="point plotly-customdata" transform="translate(152.46,106.99)" d="M3,0A3,3 0 1,1 0,-3A3,3 0 0,1 3,0Z" style="opacity: 0.7; stroke-width: 0px; fill: rgb(67, 50, 124); fill-opacity: 1;"/><path class="point plotly-customdata" transform="translate(147.43,113.68)" d="M3,0A3,3 0 1,1 0,-3A3,3 0 0,1 3,0Z" style="opacity: 0.7; stroke-width: 0px; fill: rgb(67, 50, 124); fill-opacity: 1;"/><path class="point plotly-customdata" transform="translate(262.05,306.3)" d="M3,0A3,3 0 1,1 0,-3A3,3 0 0,1 3,0Z" style="opacity: 0.7; stroke-width: 0px; fill: rgb(67, 50, 124); fill-opacity: 1;"/><path class="point plotly-customdata" transform="translate(193.97,264.26)" d="M3,0A3,3 0 1,1 0,-3A3,3 0 0,1 3,0Z" style="opacity: 0.7; stroke-width: 0px; fill: rgb(67, 50, 124); fill-opacity: 1;"/><path class="point plotly-customdata" transform="translate(239.28,288.76)" d="M3,0A3,3 0 1,1 0,-3A3,3 0 0,1 3,0Z" style="opacity: 0.7; stroke-width: 0px; fill: rgb(67, 50, 124); fill-opacity: 1;"/><path class="point plotly-customdata" transform="translate(66.4,226.39)" d="M3,0A3,3 0 1,1 0,-3A3,3 0 0,1 3,0Z" style="opacity: 0.7; stroke-width: 0px; fill: rgb(67, 50, 124); fill-opacity: 1;"/><path class="point plotly-customdata" transform="translate(59.94,164.28)" d="M3,0A3,3 0 1,1 0,-3A3,3 0 0,1 3,0Z" style="opacity: 0.7; stroke-width: 0px; fill: rgb(67, 50, 124); fill-opacity: 1;"/><path class="point plotly-customdata" transform="translate(324.62,172.98)" d="M3,0A3,3 0 1,1 0,-3A3,3 0 0,1 3,0Z" style="opacity: 0.7; stroke-width: 0px; fill: rgb(67, 50, 124); fill-opacity: 1;"/><path class="point plotly-customdata" transform="translate(360.2,139.63)" d="M3,0A3,3 0 1,1 0,-3A3,3 0 0,1 3,0Z" style="opacity: 0.7; stroke-width: 0px; fill: rgb(67, 50, 124); fill-opacity: 1;"/><path class="point plotly-customdata" transform="translate(254.82,191.57)" d="M3,0A3,3 0 1,1 0,-3A3,3 0 0,1 3,0Z" style="opacity: 0.7; stroke-width: 0px; fill: rgb(67, 50, 124); fill-opacity: 1;"/><path class="point plotly-customdata" transform="translate(152.63,62.91)" d="M3,0A3,3 0 1,1 0,-3A3,3 0 0,1 3,0Z" style="opacity: 0.7; stroke-width: 0px; fill: rgb(67, 50, 124); fill-opacity: 1;"/><path class="point plotly-customdata" transform="translate(277.48,266.23)" d="M3,0A3,3 0 1,1 0,-3A3,3 0 0,1 3,0Z" style="opacity: 0.7; stroke-width: 0px; fill: rgb(67, 50, 124); fill-opacity: 1;"/><path class="point plotly-customdata" transform="translate(171.5,57.88)" d="M3,0A3,3 0 1,1 0,-3A3,3 0 0,1 3,0Z" style="opacity: 0.7; stroke-width: 0px; fill: rgb(67, 50, 124); fill-opacity: 1;"/><path class="point plotly-customdata" transform="translate(264.98,225.97)" d="M3,0A3,3 0 1,1 0,-3A3,3 0 0,1 3,0Z" style="opacity: 0.7; stroke-width: 0px; fill: rgb(67, 50, 124); fill-opacity: 1;"/><path class="point plotly-customdata" transform="translate(218.92,147.94)" d="M3,0A3,3 0 1,1 0,-3A3,3 0 0,1 3,0Z" style="opacity: 0.7; stroke-width: 0px; fill: rgb(67, 50, 124); fill-opacity: 1;"/><path class="point plotly-customdata" transform="translate(174.98,100.22)" d="M3,0A3,3 0 1,1 0,-3A3,3 0 0,1 3,0Z" style="opacity: 0.7; stroke-width: 0px; fill: rgb(67, 50, 124); fill-opacity: 1;"/><path class="point plotly-customdata" transform="translate(59.94,164.28)" d="M3,0A3,3 0 1,1 0,-3A3,3 0 0,1 3,0Z" style="opacity: 0.7; stroke-width: 0px; fill: rgb(67, 50, 124); fill-opacity: 1;"/></g><g class="text"/></g></g></g></g><path class="xlines-above crisp" d="M0,0" style="fill: none;"/><path class="ylines-above crisp" d="M0,0" style="fill: none;"/><g class="overlines-above"/><g class="xaxislayer-above"><g class="xtick"><text text-anchor="middle" x="0" y="533" transform="translate(186.94,0)" style="font-family: 'Open Sans', verdana, arial, sans-serif; font-size: 12px; fill: rgb(42, 63, 95); fill-opacity: 1; white-space: pre; opacity: 1;">−20</text></g><g class="xtick"><text text-anchor="middle" x="0" y="533" style="font-family: 'Open Sans', verdana, arial, sans-serif; font-size: 12px; fill: rgb(42, 63, 95); fill-opacity: 1; white-space: pre; opacity: 1;" transform="translate(302.07,0)">0</text></g><g class="xtick"><text text-anchor="middle" x="0" y="533" style="font-family: 'Open Sans', verdana, arial, sans-serif; font-size: 12px; fill: rgb(42, 63, 95); fill-opacity: 1; white-space: pre; opacity: 1;" transform="translate(417.21,0)">20</text></g><g class="xtick"><text text-anchor="middle" x="0" y="533" style="font-family: 'Open Sans', verdana, arial, sans-serif; font-size: 12px; fill: rgb(42, 63, 95); fill-opacity: 1; white-space: pre; opacity: 1;" transform="translate(532.3399999999999,0)">40</text></g><g class="xtick"><text text-anchor="middle" x="0" y="533" style="font-family: 'Open Sans', verdana, arial, sans-serif; font-size: 12px; fill: rgb(42, 63, 95); fill-opacity: 1; white-space: pre; opacity: 1;" transform="translate(647.48,0)">60</text></g></g><g class="yaxislayer-above"><g class="ytick"><text text-anchor="end" x="79" y="4.199999999999999" transform="translate(0,477.46)" style="font-family: 'Open Sans', verdana, arial, sans-serif; font-size: 12px; fill: rgb(42, 63, 95); fill-opacity: 1; white-space: pre; opacity: 1;">−30</text></g><g class="ytick"><text text-anchor="end" x="79" y="4.199999999999999" style="font-family: 'Open Sans', verdana, arial, sans-serif; font-size: 12px; fill: rgb(42, 63, 95); fill-opacity: 1; white-space: pre; opacity: 1;" transform="translate(0,422.22)">−20</text></g><g class="ytick"><text text-anchor="end" x="79" y="4.199999999999999" style="font-family: 'Open Sans', verdana, arial, sans-serif; font-size: 12px; fill: rgb(42, 63, 95); fill-opacity: 1; white-space: pre; opacity: 1;" transform="translate(0,366.98)">−10</text></g><g class="ytick"><text text-anchor="end" x="79" y="4.199999999999999" style="font-family: 'Open Sans', verdana, arial, sans-serif; font-size: 12px; fill: rgb(42, 63, 95); fill-opacity: 1; white-space: pre; opacity: 1;" transform="translate(0,311.74)">0</text></g><g class="ytick"><text text-anchor="end" x="79" y="4.199999999999999" style="font-family: 'Open Sans', verdana, arial, sans-serif; font-size: 12px; fill: rgb(42, 63, 95); fill-opacity: 1; white-space: pre; opacity: 1;" transform="translate(0,256.5)">10</text></g><g class="ytick"><text text-anchor="end" x="79" y="4.199999999999999" style="font-family: 'Open Sans', verdana, arial, sans-serif; font-size: 12px; fill: rgb(42, 63, 95); fill-opacity: 1; white-space: pre; opacity: 1;" transform="translate(0,201.25)">20</text></g><g class="ytick"><text text-anchor="end" x="79" y="4.199999999999999" style="font-family: 'Open Sans', verdana, arial, sans-serif; font-size: 12px; fill: rgb(42, 63, 95); fill-opacity: 1; white-space: pre; opacity: 1;" transform="translate(0,146.01)">30</text></g></g><g class="overaxes-above"/></g></g><g class="polarlayer"/><g class="smithlayer"/><g class="ternarylayer"/><g class="geolayer"/><g class="funnelarealayer"/><g class="pielayer"/><g class="iciclelayer"/><g class="treemaplayer"/><g class="sunburstlayer"/><g class="glimages"/><defs id="topdefs-fe9be0"><g class="clips"/><clipPath id="legendfe9be0"><rect width="96" height="67" x="0" y="0"/></clipPath></defs><g class="layer-above"><g class="imagelayer"/><g class="shapelayer"/></g><g class="infolayer"><g class="legend" pointer-events="all" transform="translate(692,100)"><rect class="bg" shape-rendering="crispEdges" width="96" height="67" x="0" y="0" style="stroke: rgb(68, 68, 68); stroke-opacity: 1; fill: rgb(255, 255, 255); fill-opacity: 1; stroke-width: 0px;"/><g class="scrollbox" transform="" clip-path="url(#legendfe9be0)"><text class="legendtitletext" text-anchor="start" x="2" y="18.2" style="font-family: 'Open Sans', verdana, arial, sans-serif; font-size: 14px; fill: rgb(42, 63, 95); fill-opacity: 1; white-space: pre;">label</text><g class="groups" transform=""><g class="traces" transform="translate(0,32.7)" style="opacity: 1;"><text class="legendtext" text-anchor="start" x="40" y="4.680000000000001" style="font-family: 'Open Sans', verdana, arial, sans-serif; font-size: 12px; fill: rgb(42, 63, 95); fill-opacity: 1; white-space: pre;">Alpaca</text><g class="layers" style="opacity: 1;"><g class="legendfill"/><g class="legendlines"/><g class="legendsymbols"><g class="legendpoints"><path class="scatterpts" transform="translate(20,0)" d="M3,0A3,3 0 1,1 0,-3A3,3 0 0,1 3,0Z" style="opacity: 0.7; stroke-width: 0px; fill: rgb(13, 211, 95); fill-opacity: 1;"/></g></g></g><rect class="legendtoggle" x="0" y="-9.5" width="90.015625" height="19" style="fill: rgb(0, 0, 0); fill-opacity: 0;"/></g></g><g class="groups" transform=""><g class="traces" transform="translate(0,51.7)" style="opacity: 1;"><text class="legendtext" text-anchor="start" x="40" y="4.680000000000001" style="font-family: 'Open Sans', verdana, arial, sans-serif; font-size: 12px; fill: rgb(42, 63, 95); fill-opacity: 1; white-space: pre;">Malicious</text><g class="layers" style="opacity: 1;"><g class="legendfill"/><g class="legendlines"/><g class="legendsymbols"><g class="legendpoints"><path class="scatterpts" transform="translate(20,0)" d="M3,0A3,3 0 1,1 0,-3A3,3 0 0,1 3,0Z" style="opacity: 0.7; stroke-width: 0px; fill: rgb(67, 50, 124); fill-opacity: 1;"/></g></g></g><rect class="legendtoggle" x="0" y="-9.5" width="90.015625" height="19" style="fill: rgb(0, 0, 0); fill-opacity: 0;"/></g></g></g><rect class="scrollbar" rx="20" ry="3" width="0" height="0" x="0" y="0" style="fill: rgb(128, 139, 164); fill-opacity: 1;"/></g><g class="g-gtitle"><text class="gtitle" x="40" y="50" text-anchor="start" dy="0em" style="opacity: 1; font-family: 'Open Sans', verdana, arial, sans-serif; font-size: 17px; fill: rgb(42, 63, 95); fill-opacity: 1; white-space: pre;">Unsafe model activations</text></g><g class="g-xtitle"><text class="xtitle" x="380" y="560.3" text-anchor="middle" style="opacity: 1; font-family: 'Open Sans', verdana, arial, sans-serif; font-size: 14px; fill: rgb(42, 63, 95); fill-opacity: 1; white-space: pre;">1PC</text></g><g class="g-ytitle"><text class="ytitle" transform="rotate(-90,39.240625,310)" x="39.240625" y="310" text-anchor="middle" style="opacity: 1; font-family: 'Open Sans', verdana, arial, sans-serif; font-size: 14px; fill: rgb(42, 63, 95); fill-opacity: 1; white-space: pre;">2PC</text></g></g></svg>